<?xml version="1.0" encoding="UTF-8" standalone="no"?>
<!-- Created with Inkscape (http://www.inkscape.org/) -->

<svg
   xmlns:dc="http://purl.org/dc/elements/1.1/"
   xmlns:cc="http://creativecommons.org/ns#"
   xmlns:rdf="http://www.w3.org/1999/02/22-rdf-syntax-ns#"
   xmlns:svg="http://www.w3.org/2000/svg"
   xmlns="http://www.w3.org/2000/svg"
   xmlns:sodipodi="http://sodipodi.sourceforge.net/DTD/sodipodi-0.dtd"
   xmlns:inkscape="http://www.inkscape.org/namespaces/inkscape"
   width="128.78885mm"
   height="17.08424mm"
   viewBox="0 0 128.78885 17.08424"
   version="1.1"
   id="svg2577"
   inkscape:version="0.92.3 (2405546, 2018-03-11)"
   sodipodi:docname="logo.svg">
  <defs
     id="defs2571" />
  <sodipodi:namedview
     id="base"
     pagecolor="#ffffff"
     bordercolor="#666666"
     borderopacity="1.0"
     inkscape:pageopacity="0.0"
     inkscape:pageshadow="2"
     inkscape:zoom="0.35"
     inkscape:cx="-233.76237"
     inkscape:cy="32.285165"
     inkscape:document-units="mm"
     inkscape:current-layer="layer1"
     showgrid="false"
     inkscape:window-width="1920"
     inkscape:window-height="1004"
     inkscape:window-x="0"
     inkscape:window-y="0"
     inkscape:window-maximized="1" />
  <metadata
     id="metadata2574">
    <rdf:RDF>
      <cc:Work
         rdf:about="">
        <dc:format>image/svg+xml</dc:format>
        <dc:type
           rdf:resource="http://purl.org/dc/dcmitype/StillImage" />
        <dc:title></dc:title>
      </cc:Work>
    </rdf:RDF>
  </metadata>
  <g
     inkscape:label="Ebene 1"
     inkscape:groupmode="layer"
     id="layer1"
     transform="translate(17.525372,-140.29121)">
    <path
       inkscape:connector-curvature="0"
       id="path2569"
       d="m -14.897032,156.71836 v -0.65708 h -1.31417 -1.31417 v -1.97126 -1.97126 h 0.65708 0.65709 v 0.65709 0.65708 h 0.65708 0.65709 v 0.65709 0.65708 h 1.31417 1.31418 v 0.65709 0.65709 h 1.31417 1.3141796 v -0.65709 -0.65709 h 0.6570702 0.6570898 v -1.31417 -1.31417 h -0.6570898 -0.6570702 v -0.65708 -0.65709 h -1.3141796 -1.31417 v -0.65709 -0.65708 h -1.97126 -1.97126 v -0.65709 -0.65708 h -0.65709 -0.65708 v -2.62835 -2.62834 h 0.65708 0.65709 v -0.65709 -0.65709 h 0.65708 0.65709 v -0.65708 -0.65709 h 5.2566996 5.25668 v 0.65709 0.65708 h 1.31417 1.31417 v 1.97127 1.97125 h -0.65709 -0.65708 v -0.65709 -0.65708 h -0.65709 -0.65708 v -0.65708 -0.65709 h -1.31418 -1.31416 v -0.65709 -0.65709 h -1.31418 -1.31416 v 0.65709 0.65709 h -0.6570896 -0.65709 v 1.31417 1.31417 h 0.65709 0.6570896 v 0.65709 0.65708 h 1.31416 1.31418 v 0.65709 0.65709 h 1.97125 1.97126 v 0.65708 0.65709 h 0.65708 0.65709 v 2.62834 2.62834 h -0.65709 -0.65708 v 0.65709 0.65709 h -0.65709 -0.65708 v 0.65708 0.65709 h -5.25668 -5.2566996 z m 18.3983996,0 v -0.65708 h -0.65707 -0.65709 v -0.65709 -0.65709 h -0.65709 -0.65708998 v -5.91377 -5.91377 h 0.65708998 0.65709 v -0.65709 -0.65709 h 0.65709 0.65707 v -0.65708 -0.65709 h 5.913781 5.9137704 v 0.65709 0.65708 h 0.657091 0.65709 v 0.65709 0.65709 h 0.657079 0.65709 v 5.91377 5.91377 H 17.300179 16.6431 v 0.65709 0.65709 h -0.65709 -0.657091 v 0.65708 0.65709 H 9.4151486 3.5013676 Z m 7.8850404,-1.31417 v -0.65709 h 0.65708 0.65709 v -5.91377 -5.91377 h -0.65709 -0.65708 v -0.65709 -0.65709 H 9.4151486 7.4438876 v 0.65709 0.65709 h -0.65708 -0.65709 v 5.91377 5.91377 h 0.65709 0.65708 v 0.65709 0.65709 h 1.971261 1.9712594 z m 7.885031,1.31417 v -0.65708 h 1.314169 1.31417 v -7.22795 -7.22795 h -1.31417 -1.314169 v -0.65708 -0.65709 h 7.88503 7.885031 v 1.97126 1.97126 h -1.314173 -1.31418 v -1.31417 -1.31418 h -2.628339 -2.628339 v 3.28543 3.28544 h 1.31417 1.314169 v -1.31418 -1.31417 h 1.31418 1.314159 v 3.28543 3.28543 h -1.314159 -1.31418 v -1.31417 -1.31417 h -1.314169 -1.31417 v 3.28543 3.28543 h 1.31417 1.314169 v 0.65708 0.65709 h -5.256681 -5.256688 z m 21.026749,0 v -0.65708 h 1.31417 1.31418 v -7.22795 -7.22795 h -1.97126 -1.971259 v 1.97127 1.97125 h -1.31417 -1.314169 v -2.62834 -2.62835 h 9.1992 9.1992 v 2.62835 2.62834 h -1.314172 -1.31417 v -1.97125 -1.97127 h -1.97126 -1.971259 v 7.22795 7.22795 h 1.314169 1.314181 v 0.65708 0.65709 H 45.55488 40.298188 Z m 17.084241,0 v -0.65708 h 0.657091 0.657068 v -7.22795 -7.22795 H 58.03952 57.382429 v -0.65708 -0.65709 h 6.570851 6.570869 v 0.65709 0.65708 h 0.657079 0.65708 v 2.62835 2.62834 h -0.65708 -0.657079 v 0.65709 0.65709 h 0.657079 0.65708 v 0.65708 0.65709 h 0.65709 0.65709 v 2.62834 2.62834 h -0.65709 -0.65709 v 0.65709 0.65709 h -0.65708 -0.657079 v 0.65708 0.65709 H 63.95328 57.382429 Z m 9.1992,-1.31417 v -0.65709 h 0.65708 0.65709 v -2.62834 -2.62834 h -0.65709 -0.65708 v -0.65709 -0.65708 H 65.26746 63.95328 v 3.94251 3.94252 h 1.31418 1.314169 z m 0,-9.1992 v -0.65709 h 0.65708 0.65709 v -1.31417 -1.31417 h -0.65709 -0.65708 v -0.65709 -0.65709 H 65.26746 63.95328 v 2.62835 2.62834 h 1.31418 1.314169 z m 11.82754,10.51337 v -0.65708 h -0.65708 -0.657079 v -0.65709 -0.65709 h -0.65709 -0.657091 v -5.91377 -5.91377 h 0.657091 0.65709 v -0.65709 -0.65709 h 0.657079 0.65708 v -0.65708 -0.65709 h 5.256689 5.25669 v 0.65709 0.65708 h 0.65709 0.65709 v 0.65709 0.65709 h 0.65708 0.65708 v 5.91377 5.91377 h -0.65708 -0.65708 v 0.65709 0.65709 h -0.65709 -0.65709 v 0.65708 0.65709 h -5.25669 -5.256689 z m 6.570859,-1.31417 v -0.65709 h 0.65709 0.65708 v -5.91377 -5.91377 h -0.65708 -0.65709 v -0.65709 -0.65709 h -1.31417 -1.31417 v 0.65709 0.65709 h -0.65708 -0.65709 v 5.91377 5.91377 h 0.65709 0.65708 v 0.65709 0.65709 h 1.31417 1.31417 z m 11.82755,1.31417 v -0.65708 h 1.31417 1.31418 v -3.94252 -3.94251 h -0.65709 -0.65709 v -0.65709 -0.65709 h -0.65708 -0.65709 v -1.31417 -1.31417 h -0.65708 -0.65709 v -0.65708 -0.65709 h -0.65709 -0.65708 v -0.65709 -0.65709 h -0.65709 -0.65708 v -0.65708 -0.65709 h 3.94251 3.942522 v 0.65709 0.65708 h -1.314172 -1.31418 v 0.65709 0.65709 h 0.65709 0.65709 v 1.31417 1.31417 h 0.657082 0.65709 v 0.65709 0.65708 h 1.31417 1.31417 v -0.65708 -0.65709 h 0.65709 0.65708 v -1.31417 -1.31417 h 0.65709 0.65709 v -0.65709 -0.65709 h -1.31418 -1.31417 v -0.65708 -0.65709 h 3.94252 3.94251 v 0.65709 0.65708 h -1.31416 -1.31418 v 1.31418 1.31417 h -0.65709 -0.65708 v 1.31417 1.31417 h -0.65709 -0.65708 v 0.65709 0.65709 h -0.65709 -0.65709 v 3.94251 3.94252 h 1.31418 1.31417 v 0.65708 0.65709 h -5.25669 -5.256692 z"
       style="fill:#000000;fill-opacity:1;stroke-width:0.06570859" />
  </g>
</svg>
